<svg width="26" height="26" viewBox="0 0 26 26" fill="none" xmlns="http://www.w3.org/2000/svg">
<rect x="0.5" y="0.5" width="25" height="25" rx="12.5" fill="white" stroke="white"/>
<rect x="17" width="6" height="6" rx="3" fill="#D82D2D"/>
<g clip-path="url(#clip0_617_2819)">
<path d="M8.37258 16.5H17.5052C17.7863 16.5 18.0633 16.4323 18.3126 16.3026C18.562 16.173 18.7765 15.9852 18.9379 15.7551C19.0993 15.525 19.203 15.2594 19.24 14.9808C19.2771 14.7022 19.2465 14.4187 19.1508 14.1544L17.4872 9.55483C17.203 8.53266 16.5919 7.63169 15.7473 6.98972C14.9026 6.34775 13.8709 6.00012 12.81 6C11.7056 5.99998 10.6342 6.37659 9.7727 7.06765C8.91122 7.75871 8.31115 8.72289 8.07158 9.801L6.70075 14.2343C6.62004 14.4961 6.60189 14.7731 6.64777 15.0431C6.69365 15.3132 6.80228 15.5687 6.96491 15.7891C7.12754 16.0095 7.33963 16.1886 7.58412 16.3121C7.82862 16.4356 8.09868 16.4999 8.37258 16.5Z" fill="#2F2F2F"/>
<path d="M10.1406 17.667C10.2745 18.3263 10.6322 18.9191 11.1531 19.3449C11.6741 19.7707 12.3262 20.0032 12.999 20.0032C13.6717 20.0032 14.3239 19.7707 14.8448 19.3449C15.3657 18.9191 15.7234 18.3263 15.8573 17.667H10.1406Z" fill="#2F2F2F"/>
</g>
<defs>
<clipPath id="clip0_617_2819">
<rect width="14" height="14" fill="white" transform="translate(6 6)"/>
</clipPath>
</defs>
</svg>
