<svg width="33" height="33" viewBox="0 0 33 33" fill="none" xmlns="http://www.w3.org/2000/svg">
<rect width="33" height="33" rx="16.5" fill="#D82D2D"/>
<g clip-path="url(#clip0_617_3404)">
<path d="M19.2773 10.1916C16.5869 7.80255 12.4543 8.04783 10.0652 10.7382C7.67619 13.4287 7.92141 17.5612 10.6119 19.9502C12.8944 21.977 16.1183 22.1132 18.5316 20.4635C18.5316 20.4635 18.7061 20.345 18.8603 20.482C19.7403 21.2635 22.3808 23.6081 22.3808 23.6081C23.0815 24.2304 24.0158 24.3329 24.5677 23.7115L24.6626 23.6045C25.2145 22.9831 25.0022 22.0675 24.3014 21.4453C24.3014 21.4453 21.6665 19.1056 20.7883 18.3257C20.6266 18.1822 20.7237 17.9949 20.7237 17.9949C22.0763 15.4035 21.5598 12.2184 19.2773 10.1916ZM18.55 18.2723C16.7847 20.2603 13.7313 20.4415 11.7433 18.6762C9.75532 16.9109 9.57408 13.8575 11.3394 11.8695C13.1046 9.88154 16.1581 9.70034 18.1461 11.4656C20.134 13.2309 20.3152 16.2843 18.55 18.2723Z" fill="white"/>
<path d="M14.7353 18.0817C14.7405 18.1691 14.7286 18.2589 14.6975 18.3466C14.5731 18.6971 14.1881 18.8805 13.8376 18.7561C11.6344 17.9741 10.4782 15.5456 11.2601 13.3425C11.3845 12.992 11.7695 12.8086 12.12 12.933C12.4705 13.0575 12.6538 13.4424 12.5295 13.793C11.996 15.2962 12.7849 16.9532 14.2881 17.4866C14.551 17.58 14.7198 17.8198 14.7353 18.0817Z" fill="white"/>
</g>
<defs>
<clipPath id="clip0_617_3404">
<rect width="16.0816" height="16.0816" fill="white" transform="translate(9 25) rotate(-93.396)"/>
</clipPath>
</defs>
</svg>
