<svg width="26" height="27" viewBox="0 0 26 27" fill="none" xmlns="http://www.w3.org/2000/svg">
<path d="M8.52062 10.0744L11.9057 7.61552C12.2857 7.33742 12.7479 7.19463 13.2186 7.20994C13.7926 7.22425 14.348 7.41707 14.8074 7.76157C15.2668 8.10608 15.6075 8.58517 15.782 9.13223C15.9784 9.74799 16.158 10.1641 16.3206 10.3807C16.8121 11.0363 17.4496 11.5685 18.1826 11.9348C18.9156 12.3011 19.7239 12.4915 20.5433 12.4909V14.6033C19.4526 14.6045 18.3752 14.3639 17.3886 13.8988C16.402 13.4336 15.5308 12.7554 14.8377 11.9132L14.1016 16.0905L16.2784 17.9177L18.6263 24.369L16.6407 25.0914L14.486 19.1725L10.9055 16.1676C10.6117 15.9304 10.3868 15.6186 10.2544 15.265C10.1219 14.9112 10.0867 14.5285 10.1524 14.1566L10.6901 11.1094L9.97501 11.6291L7.72847 14.7216L6.01953 13.4796L8.50266 10.0617L8.52062 10.0744ZM14.7342 6.68184C14.174 6.68184 13.6367 6.45929 13.2405 6.06313C12.8444 5.66698 12.6218 5.12968 12.6218 4.56943C12.6218 4.00919 12.8444 3.47189 13.2405 3.07574C13.6367 2.67958 14.174 2.45703 14.7342 2.45703C15.2945 2.45703 15.8318 2.67958 16.2279 3.07574C16.6241 3.47189 16.8466 4.00919 16.8466 4.56943C16.8466 5.12968 16.6241 5.66698 16.2279 6.06313C15.8318 6.45929 15.2945 6.68184 14.7342 6.68184ZM11.5952 20.6036L8.20059 24.6489L6.58249 23.2917L9.72574 19.5464L10.5137 17.2439L12.4053 18.8282L11.5952 20.6036Z" fill="#2F2F2F"/>
</svg>
